<svg width="48" height="48" xmlns="http://www.w3.org/2000/svg" fill="none">
 <defs>
  <linearGradient y2="0.5" x2="1.00008" y1="0.5" x1="0" id="paint0_linear_11017_23002">
   <stop stop-color="#6933FF" offset="0.2"/>
   <stop stop-color="#1BF8EC" offset="1"/>
  </linearGradient>
 </defs>
 <g>
  <title>Layer 1</title>
  <path id="svg_12" fill="url(#paint0_linear_11017_23002)" d="m34.5004,32.3102c1.1999,-4.8223 0.994,-9.8873 -0.5933,-14.5963c-1.5873,-4.7091 -4.4897,-8.86527 -8.3641,-11.97741c3.5379,-2.03428 7.5492,-3.10094 11.6302,-3.09266c1.5473,-0.00084 3.0909,0.15089 4.6085,0.45299l0.6383,-2.56554c-1.7266,-0.35318 -3.4844,-0.53116 -5.2468,-0.53123c-4.9463,-0.00954 -9.7916,1.39963 -13.9611,4.06039c-4.1698,-2.66033 -9.015,-4.06947 -13.96122,-4.06039c-1.7637,0.00007 -3.5229,0.17805 -5.25088,0.53123l0.63834,2.56554c1.51888,-0.30232 3.06387,-0.45405 4.61254,-0.45299c4.08187,-0.00852 8.09422,1.05663 11.63432,3.08854c-3.1661,2.5429 -5.6931,5.79143 -7.37884,9.48563c-1.68576,3.6943 -2.4835,7.7318 -2.32941,11.7895c0.15409,4.0578 1.25574,8.0231 3.21685,11.5789c1.9611,3.5558 4.7271,6.6034 8.077,8.8988l0.7495,0.5148l0.7454,-0.5148c5.2492,-3.6016 8.9992,-8.9992 10.543,-15.175l-0.0083,0zm-12.6103,11.3988c-3.4498,-2.9791 -5.9532,-6.9017 -7.2023,-11.2851c-1.24899,-4.3834 -1.18913,-9.0363 0.1723,-13.3861c1.3342,2.2169 2.9899,4.2236 4.9131,5.9547c0.6673,0.6013 1.2006,1.3362 1.5653,2.1571c0.3647,0.8208 0.5526,1.7092 0.5516,2.6075l0,13.9519zm1.322,-19.3136c-1.7724,-1.3146 -3.3502,-2.8729 -4.6867,-4.6287c-0.8557,-1.1247 -1.3191,-2.499 -1.3191,-3.9122c0,-1.4132 0.4634,-2.7874 1.3191,-3.9121c1.3354,-1.7704 2.9162,-3.34141 4.6949,-4.66576c1.7985,1.34215 3.3948,2.93566 4.7402,4.73166c0.8278,1.106 1.2751,2.4503 1.2751,3.8318c0,1.3815 -0.4473,2.7258 -1.2751,3.8319c-1.3505,1.7918 -2.9494,3.3823 -4.7484,4.7234zm1.3178,19.3136l0,-13.9519c-0.0005,-0.8986 0.188,-1.7871 0.5534,-2.608c0.3654,-0.8209 0.8995,-1.5557 1.5676,-2.1566c1.9229,-1.7303 3.5774,-3.7372 4.909,-5.9547c0.71,2.2656 1.0697,4.6264 1.0667,7.0007c-0.0036,3.3536 -0.7285,6.6673 -2.1255,9.7162c-1.397,3.0488 -3.4334,5.7616 -5.9712,7.9543z"/>
 </g>
</svg>